 http://desibbrg.org/images/66952052392581364616.gif 
http://desibbrg.org/images/65380669136345936520.jpg 
http://desibbrg.org/images/90889971405662536494.jpg 
http://desibbrg.org/images/82470952197519461215.jpg 
http://desibbrg.org/images/94859404759153465192.jpg

Media Info - 
Video
ID : 1
Format : AVC
Format/Info : Advanced Video Codec
Format profile : High@L4.1
Format settings, CABAC : Yes
Format settings, ReFrames : 8 frames
Codec ID : V_MPEG4/ISO/AVC
Duration : 3h 35mn
Bit rate : 1 815 Kbps
Width : 1 280 pixels
Height : 544 pixels
Display aspect ratio : 2.35:1
Frame rate : 23.976 fps
Color space : YUV
Chroma subsampling : 4:2:0
Bit depth : 8 bits
Scan type : Progressive
Bits/(Pixel*Frame) : 0.109
Stream size : 2.68 GiB (83%)
Writing library : x264 core 98 r1649 20cbe10
Default : Yes
Forced : No

Audio
ID : 2
Format : AC-3
Format/Info : Audio Coding 3
Mode extension : CM (complete main)
Codec ID : A_AC3
Duration : 3h 35mn
Bit rate mode : Constant
Bit rate : 320 Kbps
Channel(s) : 6 channels
Channel positions : Front: L C R, Side: L R, LFE
Sampling rate : 48.0 KHz
Bit depth : 16 bits
Compression mode : Lossy
Stream size : 494 MiB (15%)
Language : Hindi
Default : Yes
Forced : No

Ripper : NhaNc3

Seeding 24x7... Extreme Seeding...


Enjoy!
